<svg width="22" height="24" viewBox="0 0 22 24" fill="none" xmlns="http://www.w3.org/2000/svg">
<g clip-path="url(#clip0)">
<path d="M7.1767 14.5003C5.4528 14.6213 3.88831 15.3375 3.00057 17.8894C2.89959 18.1805 2.65682 18.3572 2.37366 18.3572C1.89627 18.3572 0.420298 17.0602 -0.000366211 16.747C6.34766e-05 20.6072 1.62987 24 5.50006 24C8.75967 24 11.0001 21.9483 11.0001 18.3661C11.0001 18.2203 10.9721 18.0811 10.9584 17.9381L7.1767 14.5003ZM19.675 0C19.0236 0 18.413 0.314531 17.9473 0.771094C9.16401 9.33047 8.25006 9.53156 8.25006 12.0511C8.25006 12.6933 8.38971 13.3055 8.62518 13.8652L11.3674 16.358C11.6773 16.4423 11.9965 16.5 12.3295 16.5C14.9983 16.5 16.5452 14.3686 21.4028 4.47844C21.7199 3.80578 22.0001 3.07922 22.0001 2.32266C22.0001 0.9675 20.8829 0 19.675 0Z" fill="white"/>
</g>
<defs>
<clipPath id="clip0">
<rect width="22" height="24" fill="white"/>
</clipPath>
</defs>
</svg>
