<svg width="110" height="110" viewBox="0 0 110 110" fill="none" xmlns="http://www.w3.org/2000/svg">
<path d="M106.777 96.1694H75.5973L73.4489 73.6572L75.5973 51.145H87.4908L110 74.1174V92.9467C110 94.7265 108.557 96.1694 106.777 96.1694Z" fill="#506DC8"/>
<path d="M93.9359 51.145H87.4906V70.8947C87.4906 72.6745 88.9335 74.1174 90.7133 74.1174H110V67.6721L93.9359 51.145Z" fill="#3F4CAF"/>
<path d="M95.1266 51.145H93.9359V67.6721H110V66.0184C110 57.8041 103.341 51.145 95.1266 51.145Z" fill="#DAE7FD"/>
<path d="M75.5973 96.1694H3.22266C1.44289 96.1694 0 94.7265 0 92.9467V22.6316C0 20.8518 1.44289 19.4089 3.22266 19.4089H72.3746C74.1544 19.4089 75.5973 20.8518 75.5973 22.6316V96.1694Z" fill="#F4DA90"/>
<path d="M72.3746 19.4089H37.7985V96.1694H75.5971V22.6316C75.5973 20.8518 74.1544 19.4089 72.3746 19.4089Z" fill="#E7AA60"/>
<path d="M17.6788 104.029C12.3479 104.029 8.01086 99.6919 8.01086 94.361C8.01086 89.0301 12.3479 84.6931 17.6788 84.6931C23.0098 84.6931 27.3468 89.0301 27.3468 94.361C27.3468 99.6919 23.0098 104.029 17.6788 104.029Z" fill="#DAE7FD"/>
<path d="M17.6788 84.6931V104.029C23.0098 104.029 27.3468 99.6919 27.3468 94.361C27.3468 89.0301 23.0098 84.6931 17.6788 84.6931Z" fill="#A2BAFD"/>
<path d="M17.6788 97.5837C19.4587 97.5837 20.9015 96.1408 20.9015 94.361C20.9015 92.5812 19.4587 91.1384 17.6788 91.1384C15.899 91.1384 14.4562 92.5812 14.4562 94.361C14.4562 96.1408 15.899 97.5837 17.6788 97.5837Z" fill="#425797"/>
<path d="M17.6788 91.1384V97.5837C19.4586 97.5837 20.9015 96.1408 20.9015 94.361C20.9015 92.5813 19.4586 91.1384 17.6788 91.1384Z" fill="#283758"/>
<path d="M92.3211 104.029C86.9902 104.029 82.6532 99.6919 82.6532 94.361C82.6532 89.0301 86.9902 84.6931 92.3211 84.6931C97.6521 84.6931 101.989 89.0301 101.989 94.361C101.989 99.6919 97.6521 104.029 92.3211 104.029Z" fill="#DAE7FD"/>
<path d="M92.3212 84.6931V104.029C97.6521 104.029 101.989 99.6919 101.989 94.361C101.989 89.0301 97.6521 84.6931 92.3212 84.6931Z" fill="#A2BAFD"/>
<path d="M92.3212 97.5837C94.101 97.5837 95.5438 96.1408 95.5438 94.361C95.5438 92.5812 94.101 91.1384 92.3212 91.1384C90.5413 91.1384 89.0985 92.5812 89.0985 94.361C89.0985 96.1408 90.5413 97.5837 92.3212 97.5837Z" fill="#425797"/>
<path d="M92.3212 91.1384V97.5837C94.1009 97.5837 95.5438 96.1408 95.5438 94.361C95.5438 92.5813 94.1009 91.1384 92.3212 91.1384Z" fill="#283758"/>
<path d="M37.7985 19.409H45.179C48.2352 19.409 50.7126 16.9314 50.7126 13.8753V5.97095H43.332C40.2759 5.97095 37.7983 8.44853 37.7983 11.5045V19.409H37.7985Z" fill="#DD3C3C"/>
<path d="M37.7985 19.409H30.418C27.3619 19.409 24.8843 16.9314 24.8843 13.8753V5.97095H32.2648C35.321 5.97095 37.7985 8.44853 37.7985 11.5045V19.409Z" fill="#DE5E5E"/>
<path d="M31.4181 19.4089H44.179V96.1692H31.4181V19.4089Z" fill="#E3865C"/>
<path d="M37.7985 19.4089H44.179V96.1692H37.7985V19.4089Z" fill="#DE5E5E"/>
<path d="M75.5973 51.4087V64.1695H0V51.4087H75.5973Z" fill="#DE5E5E"/>
<path d="M37.7985 51.4089H75.5971V64.1698H37.7985V51.4089Z" fill="#DD3C3C"/>
</svg>
