<svg width="131" height="131" viewBox="0 0 131 131" fill="none" xmlns="http://www.w3.org/2000/svg">
<path d="M90.8316 124.933C90.8316 124.933 54.3901 130.999 54.3366 130.997C52.2935 130.896 50.6632 128.899 50.6632 126.45V74.654C50.6632 72.4547 51.9778 70.6199 53.7253 70.1954L90.8316 76.2621L127.927 70.1929C129.68 70.6125 131 72.4503 131 74.654V126.45C131 128.899 129.37 130.896 127.327 130.997C127.273 130.999 90.8316 124.933 90.8316 124.933V124.933Z" fill="#E0E4F4"/>
<path d="M127.927 70.1921L90.8316 76.2614V124.932C90.8316 124.932 127.273 130.998 127.327 130.996C129.37 130.895 131 128.898 131 126.449V74.6533C131 72.4496 129.68 70.6117 127.927 70.1921V70.1921Z" fill="#D6D4EB"/>
<path d="M90.8316 93.3929L54.3365 130.996C54.3905 130.998 54.4438 131 54.4983 131H127.165C127.22 131 127.273 130.999 127.327 130.996L90.8316 93.3929Z" fill="#D6D4EB"/>
<path d="M90.8315 93.3929V131H127.165C127.219 131 127.273 130.999 127.327 130.996L90.8315 93.3929Z" fill="#C9C6EB"/>
<path d="M127.165 70.1023H54.498C54.237 70.1023 53.9822 70.1338 53.7358 70.1929L89.2348 108.053C90.161 108.966 91.5019 108.966 92.4281 108.053L127.927 70.1929C127.681 70.1338 127.426 70.1023 127.165 70.1023Z" fill="#F7FBFF"/>
<path d="M127.165 70.1023H90.8316V108.738C91.3983 108.738 91.9651 108.509 92.4282 108.053L127.927 70.1929C127.681 70.1338 127.426 70.1023 127.165 70.1023Z" fill="#E0E4F4"/>
<path d="M63.9677 104.418H24.2552C22.1357 104.418 20.4173 102.7 20.4173 100.581C20.4173 98.461 22.1357 96.7427 24.2552 96.7427H63.9677C66.0872 96.7427 67.8055 98.461 67.8055 100.581C67.8055 102.7 66.0872 104.418 63.9677 104.418V104.418Z" fill="#506DC8"/>
<path d="M9.16386 104.418H3.83789C1.71835 104.418 0 102.7 0 100.581C0 98.461 1.71835 96.7427 3.83789 96.7427H9.16386C11.2834 96.7427 13.0018 98.461 13.0018 100.581C13.0018 102.7 11.2837 104.418 9.16386 104.418Z" fill="#A2BAFD"/>
<path d="M40.9248 119.379H31.5004C29.3809 119.379 27.6625 117.66 27.6625 115.541C27.6625 113.421 29.3809 111.703 31.5004 111.703H40.9248C43.0443 111.703 44.7626 113.421 44.7626 115.541C44.7626 117.66 43.0443 119.379 40.9248 119.379Z" fill="#A2BAFD"/>
<path d="M40.1684 54.8297C40.1684 54.8297 3.7271 60.8964 3.67337 60.8938C1.63034 60.7932 0 58.796 0 56.3467V4.55101C0 2.35164 1.31461 0.516873 3.06213 0.0924023L40.1684 6.15908L77.2642 0.0898438C79.0168 0.509453 80.3368 2.34729 80.3368 4.55101V56.3467C80.3368 58.7958 78.7064 60.7932 76.6634 60.8938C76.6099 60.8964 40.1684 54.8297 40.1684 54.8297V54.8297Z" fill="#E0E4F4"/>
<path d="M77.2641 0.09021L40.1684 6.15945V54.8298C40.1684 54.8298 76.6099 60.8965 76.6634 60.8939C78.7064 60.7934 80.3368 58.7961 80.3368 56.3468V4.55112C80.3368 2.34766 79.017 0.509563 77.2641 0.09021V0.09021Z" fill="#D6D4EB"/>
<path d="M40.1684 23.2905L3.6734 60.8937C3.72739 60.8962 3.78061 60.8978 3.8351 60.8978H76.502C76.5565 60.8978 76.6097 60.8965 76.6637 60.8937L40.1684 23.2905Z" fill="#D6D4EB"/>
<path d="M40.1684 23.2905V60.8975H76.5017C76.5562 60.8975 76.6094 60.8962 76.6634 60.8934L40.1684 23.2905Z" fill="#C9C6EB"/>
<path d="M76.5017 0H3.83508C3.5741 0 3.31927 0.0314707 3.07288 0.0905742L38.5718 37.9503C39.498 38.8638 40.839 38.8638 41.7652 37.9503L77.2642 0.0905742C77.0178 0.0314707 76.7629 0 76.5017 0V0Z" fill="#F7FBFF"/>
<path d="M76.5017 0H40.1684V38.6353C40.7351 38.6353 41.3021 38.4071 41.765 37.9501L77.2642 0.0905742C77.0178 0.0314707 76.763 0 76.5017 0V0Z" fill="#E0E4F4"/>
<path d="M107.766 34.5524H66.972C64.8524 34.5524 63.1341 32.834 63.1341 30.7145C63.1341 28.5949 64.8524 26.8766 66.972 26.8766H107.766C109.886 26.8766 111.604 28.5949 111.604 30.7145C111.604 32.834 109.886 34.5524 107.766 34.5524V34.5524Z" fill="#506DC8"/>
<path d="M95.3358 19.9348H87.4129C85.2933 19.9348 83.575 18.2165 83.575 16.0969C83.575 13.9774 85.2933 12.259 87.4129 12.259H95.3358C97.4553 12.259 99.1737 13.9774 99.1737 16.0969C99.1737 18.2165 97.4556 19.9348 95.3358 19.9348Z" fill="#A2BAFD"/>
<path d="M126.897 34.8038H122.817C120.697 34.8038 118.979 33.0855 118.979 30.9659C118.979 28.8464 120.697 27.1281 122.817 27.1281H126.897C129.017 27.1281 130.735 28.8464 130.735 30.9659C130.735 33.0855 129.017 34.8038 126.897 34.8038Z" fill="#DAE7FD"/>
</svg>
