<svg width="22" height="24" viewBox="0 0 22 24" fill="none" xmlns="http://www.w3.org/2000/svg">
<g clip-path="url(#clip0)">
<path d="M21.2143 19.5H20.0647L13.6459 2.51672C13.5402 2.22016 13.3398 1.96264 13.0729 1.7803C12.8061 1.59795 12.4861 1.49994 12.1579 1.5H9.84205C9.51387 1.49994 9.19391 1.59795 8.92705 1.7803C8.6602 1.96264 8.45984 2.22016 8.35411 2.51672L1.93531 19.5H0.785714C0.57733 19.5 0.37748 19.579 0.23013 19.7197C0.0827804 19.8603 0 20.0511 0 20.25L0 21.75C0 21.9489 0.0827804 22.1397 0.23013 22.2803C0.37748 22.421 0.57733 22.5 0.785714 22.5H7.07143C7.27981 22.5 7.47966 22.421 7.62701 22.2803C7.77436 22.1397 7.85714 21.9489 7.85714 21.75V20.25C7.85714 20.0511 7.77436 19.8603 7.62701 19.7197C7.47966 19.579 7.27981 19.5 7.07143 19.5H6.10991L7.25411 16.5H14.7459L15.8901 19.5H14.9286C14.7202 19.5 14.5203 19.579 14.373 19.7197C14.2256 19.8603 14.1429 20.0511 14.1429 20.25V21.75C14.1429 21.9489 14.2256 22.1397 14.373 22.2803C14.5203 22.421 14.7202 22.5 14.9286 22.5H21.2143C21.4227 22.5 21.6225 22.421 21.7699 22.2803C21.9172 22.1397 22 21.9489 22 21.75V20.25C22 20.0511 21.9172 19.8603 21.7699 19.7197C21.6225 19.579 21.4227 19.5 21.2143 19.5ZM8.6846 12.75L11 6.68016L13.3154 12.75H8.6846Z" fill="white"/>
</g>
<defs>
<clipPath id="clip0">
<rect width="22" height="24" fill="white"/>
</clipPath>
</defs>
</svg>
