<svg width="110" height="110" viewBox="0 0 110 110" fill="none" xmlns="http://www.w3.org/2000/svg">
<g clip-path="url(#clip0)">
<path d="M48.5547 89.6704H61.4453V110H48.5547V89.6704Z" fill="#DDE1F2"/>
<path d="M55 89.6704H61.4453V110H55V89.6704Z" fill="#D4D1E6"/>
<path d="M86.1377 92.2737H23.8623C22.0825 92.2737 20.6396 90.8308 20.6396 89.051V34.3604C20.6396 15.3837 36.0233 0 55 0C73.9767 0 89.3604 15.3837 89.3604 34.3604V89.051C89.3604 90.8308 87.9175 92.2737 86.1377 92.2737Z" fill="#506DC8"/>
<path d="M55 0V92.2735H86.1377C87.9177 92.2735 89.3604 90.8306 89.3604 89.0508V34.3604C89.3604 15.3837 73.9767 0 55 0Z" fill="#3F4CAF"/>
<path d="M71.4931 39.0281H38.5069C36.7271 39.0281 35.2842 37.5852 35.2842 35.8054C35.2842 34.0257 36.7271 32.5828 38.5069 32.5828H71.4929C73.2727 32.5828 74.7156 34.0257 74.7156 35.8054C74.7158 37.5852 73.2729 39.0281 71.4931 39.0281Z" fill="#425797"/>
<path d="M71.4931 32.5828H55V39.0281H71.4931C73.2729 39.0281 74.7158 37.5852 74.7158 35.8054C74.7158 34.0257 73.2729 32.5828 71.4931 32.5828Z" fill="#283758"/>
<path d="M68.2703 74.2899H41.7295C39.9498 74.2899 38.5069 72.847 38.5069 71.0672V55.5426C38.5069 53.7628 39.9498 52.3199 41.7295 52.3199H68.2703C70.05 52.3199 71.4929 53.7628 71.4929 55.5426V71.0672C71.4929 72.847 70.0502 74.2899 68.2703 74.2899Z" fill="#F6FAFC"/>
<path d="M68.2705 52.319H55V74.2889H68.2705C70.0502 74.2889 71.4931 72.846 71.4931 71.0662V55.5416C71.4931 53.7619 70.0502 52.319 68.2705 52.319Z" fill="#DDE1F2"/>
</g>
<defs>
<clipPath id="clip0">
<rect width="110" height="110" fill="white"/>
</clipPath>
</defs>
</svg>
