<svg width="22" height="24" viewBox="0 0 22 24" fill="none" xmlns="http://www.w3.org/2000/svg">
<path d="M19.25 3H14.6667C14.6667 1.34531 13.0224 0 11 0C8.9776 0 7.33333 1.34531 7.33333 3H2.75C1.23177 3 0 4.00781 0 5.25V21.75C0 22.9922 1.23177 24 2.75 24H19.25C20.7682 24 22 22.9922 22 21.75V5.25C22 4.00781 20.7682 3 19.25 3ZM5.5 19.875C4.73802 19.875 4.125 19.3734 4.125 18.75C4.125 18.1266 4.73802 17.625 5.5 17.625C6.26198 17.625 6.875 18.1266 6.875 18.75C6.875 19.3734 6.26198 19.875 5.5 19.875ZM5.5 15.375C4.73802 15.375 4.125 14.8734 4.125 14.25C4.125 13.6266 4.73802 13.125 5.5 13.125C6.26198 13.125 6.875 13.6266 6.875 14.25C6.875 14.8734 6.26198 15.375 5.5 15.375ZM5.5 10.875C4.73802 10.875 4.125 10.3734 4.125 9.75C4.125 9.12656 4.73802 8.625 5.5 8.625C6.26198 8.625 6.875 9.12656 6.875 9.75C6.875 10.3734 6.26198 10.875 5.5 10.875ZM11 1.875C11.762 1.875 12.375 2.37656 12.375 3C12.375 3.62344 11.762 4.125 11 4.125C10.238 4.125 9.625 3.62344 9.625 3C9.625 2.37656 10.238 1.875 11 1.875ZM18.3333 19.125C18.3333 19.3313 18.1271 19.5 17.875 19.5H9.625C9.37292 19.5 9.16667 19.3313 9.16667 19.125V18.375C9.16667 18.1687 9.37292 18 9.625 18H17.875C18.1271 18 18.3333 18.1687 18.3333 18.375V19.125ZM18.3333 14.625C18.3333 14.8313 18.1271 15 17.875 15H9.625C9.37292 15 9.16667 14.8313 9.16667 14.625V13.875C9.16667 13.6687 9.37292 13.5 9.625 13.5H17.875C18.1271 13.5 18.3333 13.6687 18.3333 13.875V14.625ZM18.3333 10.125C18.3333 10.3313 18.1271 10.5 17.875 10.5H9.625C9.37292 10.5 9.16667 10.3313 9.16667 10.125V9.375C9.16667 9.16875 9.37292 9 9.625 9H17.875C18.1271 9 18.3333 9.16875 18.3333 9.375V10.125Z" fill="white"/>
</svg>
