<svg width="106" height="106" viewBox="0 0 106 106" fill="none" xmlns="http://www.w3.org/2000/svg">
<g clip-path="url(#clip0)">
<path d="M59.625 86.1691C59.7133 91.425 62.2308 96.3275 66.25 99.4191V102.687C66.25 104.498 67.7517 106 69.5625 106H102.688C104.498 106 106 104.498 106 102.687V82.2383C106 74.3766 102.952 67.0008 97.4758 61.3475L89.1725 52.9116C88.4658 52.2049 87.5825 51.8516 86.6108 51.8958C85.6392 51.9399 84.7558 52.4258 84.1817 53.1766L79.0583 59.8016L69.96 71.6383L60.3317 84.0933C59.8458 84.7116 59.625 85.4183 59.625 86.1691Z" fill="#FFB74D"/>
<path d="M45.6683 84.0933L36.04 71.6383L26.9417 59.8016L21.8183 53.1766C21.2442 52.4258 20.3608 51.9399 19.3892 51.8958C18.4175 51.8516 17.5342 52.2049 16.8275 52.9116L8.52416 61.3475C3.04749 67.0008 -7.62939e-06 74.3766 -7.62939e-06 82.2383V102.687C-7.62939e-06 104.498 1.50166 106 3.31249 106H36.4375C38.2483 106 39.75 104.498 39.75 102.687V99.4191C43.7692 96.3275 46.2867 91.425 46.375 86.1691C46.375 85.4183 46.1542 84.7116 45.6683 84.0933Z" fill="#FFB74D"/>
<path d="M77.2917 88.3333H28.7083C27.4717 88.3333 26.3366 87.6443 25.7668 86.5446L18.0553 71.656C17.8477 71.2541 17.7197 70.808 17.6887 70.3531L13.2544 3.53333C13.197 2.61908 13.5194 1.71808 14.1422 1.04675C14.7693 0.379833 15.6438 0 16.5625 0H45.2708C46.5782 0 47.7663 0.7685 48.3007 1.96542L52.7173 11.9029C53.1148 12.7995 53.0928 13.8286 52.6643 14.7075L42.6076 35.2406L50.7917 50.0718V35.3333C50.7917 34.6443 51.0081 33.9686 51.41 33.4077L61.8333 18.815V3.3125C61.8333 1.484 63.3173 0 65.1458 0H89.4375C90.3606 0 91.2483 0.388667 91.8755 1.06883C92.5027 1.749 92.8163 2.66325 92.7412 3.58633L87.397 68.1978L87.1718 69.1518L80.3701 86.2443C79.8666 87.5074 78.6476 88.3333 77.2917 88.3333ZM65.1458 19.875H65.19H65.1458Z" fill="#ECEFF1"/>
<path d="M45.2708 0H16.5625C15.6438 0 14.7693 0.379833 14.1422 1.04675C13.5194 1.71808 13.197 2.61908 13.2544 3.53333L17.6887 70.3531C17.7197 70.808 17.8433 71.2541 18.0553 71.656L25.7668 86.5446C26.3366 87.6443 27.4717 88.3333 28.7083 88.3333H50.7917V50.0762L42.6076 35.2406L52.6599 14.7075C53.0883 13.8286 53.1104 12.7995 52.7129 11.9029L48.2962 1.96542C47.7663 0.7685 46.5782 0 45.2708 0V0Z" fill="#CDD0D2"/>
<path d="M37.4975 60.7733C36.6142 59.0508 34.9358 57.8583 32.9925 57.505C31.005 57.1958 28.9733 57.8142 27.56 59.1833L26.9417 59.8017L12.3225 73.935L-7.62939e-06 85.4183V102.688C-7.62939e-06 104.498 1.50166 106 3.31249 106H22.0833V100.625L28.7967 95.1792C30.74 92.7942 31.8 89.9233 31.8 86.8758C31.8 84.3142 31.0492 81.885 29.7242 79.8092L36.04 71.6383L36.57 70.9758C38.8225 68.0608 39.22 64.0417 37.4975 60.7733Z" fill="#FFCC80"/>
<path d="M69.43 70.9758L69.96 71.6383L76.2758 79.8092C74.9508 81.885 74.2 84.3142 74.2 86.8758C74.2 89.9233 75.26 92.7942 77.2033 95.1792L83.9167 100.625V106H102.687C104.498 106 106 104.498 106 102.688V85.4183L93.6775 73.935L79.0583 59.8017L78.44 59.1833C77.0267 57.8142 74.995 57.1958 73.0075 57.505C71.0642 57.8583 69.3858 59.0508 68.5025 60.7733C66.78 64.0417 67.1775 68.0608 69.43 70.9758Z" fill="#FFCC80"/>
</g>
<defs>
<clipPath id="clip0">
<rect width="106" height="106" fill="white"/>
</clipPath>
</defs>
</svg>
